<?xml version="1.0" encoding="UTF-8" standalone="no"?>
<svg
   xmlns:dc="http://purl.org/dc/elements/1.1/"
   xmlns:cc="http://creativecommons.org/ns#"
   xmlns:rdf="http://www.w3.org/1999/02/22-rdf-syntax-ns#"
   xmlns:svg="http://www.w3.org/2000/svg"
   xmlns="http://www.w3.org/2000/svg"
   viewBox="0 0 742.13733 432.892"
   height="432.892"
   width="742.13733"
   xml:space="preserve"
   id="svg2"
   version="1.1"><metadata
     id="metadata8"><rdf:RDF><cc:Work
         rdf:about=""><dc:format>image/svg+xml</dc:format><dc:type
           rdf:resource="http://purl.org/dc/dcmitype/StillImage" /></cc:Work></rdf:RDF></metadata><defs
     id="defs6"><clipPath
       id="clipPath18"
       clipPathUnits="userSpaceOnUse"><path
         id="path16"
         d="m 111.014,213.656 h -10e-4 c -9.083,-9.084 4.727,-37.756 30.997,-65.143 v 0 c 6.31,9.846 14.948,20.541 25.335,30.928 v 0 c 2.007,2.008 4.026,3.949 6.048,5.822 v 0 -63.554 c 18.206,-12.273 33.955,-17.003 40.263,-10.696 v 0 c 9.448,9.448 -5.871,40.084 -34.215,68.428 v 0 c -2.007,2.007 -4.026,3.949 -6.048,5.822 v 0 c -20.811,19.273 -41.957,31.183 -54.343,31.183 v 0 c -3.403,0 -6.144,-0.899 -8.036,-2.79" /></clipPath><linearGradient
       id="linearGradient28"
       spreadMethod="pad"
       gradientTransform="matrix(108.22348,0,0,-108.22348,108.22263,162.33435)"
       gradientUnits="userSpaceOnUse"
       y2="0"
       x2="1"
       y1="0"
       x1="0"><stop
         id="stop24"
         offset="0"
         style="stop-opacity:1;stop-color:#00dfff" /><stop
         id="stop26"
         offset="1"
         style="stop-opacity:1;stop-color:#8024ff" /></linearGradient><clipPath
       id="clipPath38"
       clipPathUnits="userSpaceOnUse"><path
         id="path36"
         d="M 0,324.669 H 556.603 V 0 H 0 Z" /></clipPath></defs><g
     transform="matrix(1.3333333,0,0,-1.3333333,0,432.892)"
     id="g10"><g
       id="g12"><g
         clip-path="url(#clipPath18)"
         id="g14"><g
           id="g20"><g
             id="g22"><path
               id="path30"
               style="fill:url(#linearGradient28);stroke:none"
               d="m 111.014,213.656 h -10e-4 c -9.083,-9.084 4.727,-37.756 30.997,-65.143 v 0 c 6.31,9.846 14.948,20.541 25.335,30.928 v 0 c 2.007,2.008 4.026,3.949 6.048,5.822 v 0 -63.554 c 18.206,-12.273 33.955,-17.003 40.263,-10.696 v 0 c 9.448,9.448 -5.871,40.084 -34.215,68.428 v 0 c -2.007,2.007 -4.026,3.949 -6.048,5.822 v 0 c -20.811,19.273 -41.957,31.183 -54.343,31.183 v 0 c -3.403,0 -6.144,-0.899 -8.036,-2.79" /></g></g></g></g><g
       id="g32"><g
         clip-path="url(#clipPath38)"
         id="g34"><g
           transform="translate(235.7727,213.6553)"
           id="g40"><path
             id="path42"
             style="fill:#ffffff;fill-opacity:1;fill-rule:nonzero;stroke:none"
             d="m 0,0 c -8.779,8.779 -35.851,-3.825 -62.38,-28.392 2.022,-1.873 4.041,-3.815 6.049,-5.822 10.387,-10.387 19.024,-21.082 25.335,-30.929 C -4.726,-37.755 9.084,-9.084 0,0" /></g><g
           transform="translate(133.1308,111.0135)"
           id="g44"><path
             id="path46"
             style="fill:#ffffff;fill-opacity:1;fill-rule:nonzero;stroke:none"
             d="M 0,0 C 6.307,-6.307 22.056,-1.578 40.262,10.696 V 74.25 C 38.24,72.377 36.221,70.435 34.214,68.428 5.87,40.084 -9.448,9.448 0,0" /></g><g
           transform="translate(269.3998,151.4328)"
           id="g48"><path
             id="path50"
             style="fill:#ffffff;fill-opacity:1;fill-rule:nonzero;stroke:none"
             d="M 0,0 C 1.888,0 3.222,0.183 4.006,0.552 4.788,0.921 5.18,1.634 5.18,2.694 5.18,3.523 4.673,4.248 3.661,4.869 2.647,5.491 1.105,6.192 -0.967,6.976 -2.579,7.574 -4.04,8.195 -5.352,8.84 c -1.313,0.645 -2.43,1.417 -3.35,2.314 -0.922,0.898 -1.635,1.969 -2.141,3.212 -0.508,1.243 -0.76,2.739 -0.76,4.489 0,3.407 1.266,6.101 3.799,8.081 2.531,1.98 6.008,2.97 10.429,2.97 2.21,0 4.327,-0.196 6.354,-0.587 2.025,-0.392 3.636,-0.818 4.835,-1.278 l -1.796,-8.012 c -1.198,0.415 -2.499,0.783 -3.902,1.106 -1.406,0.321 -2.982,0.483 -4.731,0.483 -3.224,0 -4.835,-0.898 -4.835,-2.694 0,-0.414 0.069,-0.783 0.207,-1.105 0.138,-0.322 0.414,-0.633 0.829,-0.932 0.414,-0.3 0.978,-0.624 1.692,-0.971 0.713,-0.349 1.623,-0.732 2.728,-1.149 2.255,-0.836 4.12,-1.66 5.594,-2.472 1.474,-0.812 2.636,-1.69 3.488,-2.631 0.852,-0.942 1.451,-1.988 1.796,-3.136 0.345,-1.148 0.518,-2.481 0.518,-3.996 0,-3.584 -1.347,-6.295 -4.04,-8.133 -2.694,-1.837 -6.505,-2.756 -11.431,-2.756 -3.223,0 -5.905,0.276 -8.046,0.829 -2.141,0.552 -3.626,1.012 -4.455,1.381 l 1.727,8.357 C -9.094,1.52 -7.298,0.978 -5.456,0.587 -3.615,0.196 -1.796,0 0,0" /></g><path
           id="path52"
           style="fill:#ffffff;fill-opacity:1;fill-rule:nonzero;stroke:none"
           d="m 301.377,144.043 h -10.291 v 36.329 h 10.291 z m 0.967,46.827 c 0,-1.889 -0.611,-3.373 -1.831,-4.455 -1.22,-1.082 -2.658,-1.623 -4.316,-1.623 -1.658,0 -3.097,0.541 -4.317,1.623 -1.22,1.082 -1.83,2.566 -1.83,4.455 0,1.887 0.61,3.373 1.83,4.455 1.22,1.081 2.659,1.623 4.317,1.623 1.658,0 3.096,-0.542 4.316,-1.623 1.22,-1.082 1.831,-2.568 1.831,-4.455" /><g
           transform="translate(318.4352,163.3815)"
           id="g54"><path
             id="path56"
             style="fill:#ffffff;fill-opacity:1;fill-rule:nonzero;stroke:none"
             d="m 0,0 c 0,-5.757 2.324,-8.633 6.976,-8.633 1.058,0 2.048,0.138 2.969,0.414 0.921,0.276 1.704,0.598 2.349,0.967 V 9.186 C 11.787,9.278 11.189,9.358 10.498,9.428 9.807,9.496 9.001,9.531 8.081,9.531 5.363,9.531 3.338,8.633 2.003,6.838 0.667,5.042 0,2.762 0,0 m 22.585,-14.78 c 0,-5.94 -1.509,-10.348 -4.524,-13.227 -3.017,-2.877 -7.678,-4.316 -13.986,-4.316 -2.21,0 -4.42,0.196 -6.63,0.587 -2.211,0.391 -4.26,0.91 -6.147,1.554 l 1.795,8.633 c 1.612,-0.644 3.304,-1.15 5.077,-1.519 1.772,-0.368 3.787,-0.553 6.043,-0.553 2.946,0 5.03,0.645 6.251,1.934 1.219,1.29 1.83,2.946 1.83,4.973 v 1.312 c -1.105,-0.507 -2.245,-0.887 -3.419,-1.14 -1.174,-0.253 -2.452,-0.379 -3.833,-0.379 -5.02,0 -8.864,1.485 -11.534,4.454 -2.671,2.97 -4.006,7.125 -4.006,12.467 0,2.67 0.414,5.099 1.243,7.287 0.829,2.186 2.037,4.062 3.626,5.628 1.589,1.565 3.533,2.774 5.836,3.626 2.302,0.852 4.904,1.278 7.805,1.278 1.243,0 2.521,-0.058 3.833,-0.173 1.312,-0.115 2.612,-0.265 3.902,-0.449 1.289,-0.184 2.521,-0.403 3.695,-0.656 1.175,-0.253 2.221,-0.517 3.143,-0.794 z" /></g><g
           transform="translate(365.055,197.6385)"
           id="g58"><path
             id="path60"
             style="fill:#ffffff;fill-opacity:1;fill-rule:nonzero;stroke:none"
             d="m 0,0 c 1.934,0 3.706,-0.196 5.318,-0.587 1.611,-0.392 2.855,-0.772 3.73,-1.14 L 7.045,-9.945 c -0.922,0.414 -1.923,0.725 -3.005,0.932 -1.082,0.207 -2.083,0.311 -3.004,0.311 -1.243,0 -2.291,-0.173 -3.142,-0.518 -0.853,-0.346 -1.52,-0.818 -2.003,-1.416 -0.484,-0.599 -0.829,-1.312 -1.036,-2.141 -0.208,-0.829 -0.311,-1.727 -0.311,-2.694 v -1.796 H 7.252 v -8.564 H -5.456 v -27.765 h -10.291 v 38.263 c 0,4.697 1.323,8.426 3.971,11.189 C -9.129,-1.381 -5.204,0 0,0" /></g><g
           transform="translate(400.0029,162.2762)"
           id="g62"><path
             id="path64"
             style="fill:#ffffff;fill-opacity:1;fill-rule:nonzero;stroke:none"
             d="m 0,0 c 0,3.177 -0.634,5.674 -1.899,7.494 -1.267,1.818 -3.074,2.728 -5.422,2.728 -2.348,0 -4.168,-0.91 -5.456,-2.728 -1.29,-1.82 -1.934,-4.317 -1.934,-7.494 0,-3.177 0.644,-5.698 1.934,-7.563 1.288,-1.865 3.108,-2.797 5.456,-2.797 2.348,0 4.155,0.932 5.422,2.797 C -0.634,-5.698 0,-3.177 0,0 m 10.498,0 c 0,-2.855 -0.414,-5.468 -1.243,-7.839 -0.829,-2.372 -2.027,-4.397 -3.592,-6.078 -1.565,-1.681 -3.442,-2.982 -5.628,-3.902 -2.188,-0.921 -4.64,-1.381 -7.356,-1.381 -2.671,0 -5.1,0.46 -7.287,1.381 -2.187,0.92 -4.064,2.221 -5.629,3.902 -1.566,1.681 -2.786,3.706 -3.66,6.078 -0.875,2.371 -1.313,4.984 -1.313,7.839 0,2.854 0.45,5.456 1.347,7.805 0.898,2.348 2.142,4.351 3.73,6.009 1.589,1.657 3.476,2.946 5.663,3.867 2.187,0.921 4.57,1.382 7.149,1.382 2.625,0 5.03,-0.461 7.217,-1.382 C 2.083,16.76 3.959,15.471 5.525,13.814 7.09,12.156 8.311,10.153 9.186,7.805 10.06,5.456 10.498,2.854 10.498,0" /></g><g
           transform="translate(435.6848,162.3348)"
           id="g66"><path
             id="path68"
             style="fill:#ffffff;fill-opacity:1;fill-rule:nonzero;stroke:none"
             d="m 0,0 c 2.259,3.209 4.43,6.293 6.514,9.255 2.085,2.961 4.145,5.888 6.181,8.782 H 1.576 L -5.569,7.853 -12.713,18.037 h -11.119 c 2.036,-2.894 4.096,-5.821 6.181,-8.782 2.084,-2.962 4.255,-6.046 6.514,-9.255 -2.259,-3.21 -4.43,-6.293 -6.514,-9.255 -2.085,-2.961 -4.145,-5.888 -6.181,-8.782 h 11.119 l 7.144,10.184 7.145,-10.184 h 11.119 c -2.036,2.894 -4.096,5.821 -6.181,8.782 C 4.43,-6.293 2.259,-3.21 0,0" /></g></g></g></g></svg>